<svg xmlns="http://www.w3.org/2000/svg" width="256" height="256" viewBox="0 0 100 100"><rect width="100" height="100" rx="0" fill="#495e57"></rect><path fill="#fff" d="M37.46 58.68L46.07 58.68Q45.32 66.65 40.19 71.11Q35.06 75.57 26.55 75.57L26.55 75.57Q20.61 75.57 16.08 72.75Q11.55 69.93 9.09 64.73Q6.63 59.54 6.52 52.67L6.52 52.67L6.52 48.02Q6.52 40.98 9.02 35.61Q11.51 30.24 16.18 27.34Q20.84 24.43 26.96 24.43L26.96 24.43Q35.20 24.43 40.22 28.91Q45.25 33.39 46.07 41.56L46.07 41.56L37.46 41.56Q36.84 36.19 34.33 33.82Q31.82 31.44 26.96 31.44L26.96 31.44Q21.32 31.44 18.30 35.56Q15.27 39.68 15.21 47.64L15.21 47.64L15.21 52.05Q15.21 60.12 18.09 64.36Q20.98 68.59 26.55 68.59L26.55 68.59Q31.65 68.59 34.21 66.30Q36.77 64.01 37.46 58.68L37.46 58.68ZM58.82 25.12L71.33 64.05L83.97 25.12L93.48 25.12L75.57 74.88L67.19 74.88L49.35 25.12L58.82 25.12Z"></path></svg>